<svg width="40" height="40" viewBox="0 0 40 40" fill="none" xmlns="http://www.w3.org/2000/svg">
  <g clip-path="url(#clip0_4002_400)">
    <path
      d="M16.8978 3.33337C14.3619 3.33337 12.3288 4.88618 11.263 6.98897L11.084 6.90108C11.084 6.90108 11.0162 7.12062 10.9863 7.19405C7.60638 8.20534 5.09441 11.2162 5.09441 14.8633C5.09441 15.7597 5.36627 16.5695 5.64128 17.3698C4.26628 19.0401 3.33659 21.1042 3.33659 23.4278C3.33659 27.6345 6.09659 31.1528 9.88607 32.5424C11.3252 34.9501 13.8633 36.6667 16.901 36.6667C18.4233 36.6667 19.8311 36.2357 21.0352 35.5534L21.6699 35.1954V27.9167H27.0833V30.2474C26.3689 30.5392 25.7778 31.0698 25.4109 31.7488C25.044 32.4278 24.9241 33.213 25.0716 33.9705C25.2191 34.728 25.6249 35.4109 26.2197 35.9026C26.8146 36.3943 27.5616 36.6644 28.3333 36.6667C29.1051 36.6644 29.8521 36.3943 30.4469 35.9026C31.0418 35.4109 31.4475 34.728 31.5951 33.9705C31.7426 33.213 31.6227 32.4278 31.2558 31.7488C30.8889 31.0698 30.2978 30.5392 29.5833 30.2474V25.4167H21.6699V21.25H33.5807C33.8295 21.8649 34.256 22.3916 34.8057 22.7627C35.3554 23.1339 36.0034 23.3325 36.6667 23.3334C37.5507 23.3334 38.3986 22.9822 39.0237 22.3571C39.6488 21.7319 40 20.8841 40 20C40 19.116 39.6488 18.2681 39.0237 17.643C38.3986 17.0179 37.5507 16.6667 36.6667 16.6667C36.0034 16.6675 35.3554 16.8662 34.8057 17.2373C34.256 17.6085 33.8295 18.1352 33.5807 18.75H21.6699V14.5834H31.25V9.75264C31.9645 9.46089 32.5556 8.93026 32.9224 8.25129C33.2893 7.57232 33.4092 6.78709 33.2617 6.02957C33.1142 5.27205 32.7084 4.58919 32.1136 4.09749C31.5188 3.60579 30.7717 3.33573 30 3.33337C29.2283 3.33573 28.4812 3.60579 27.8864 4.09749C27.2916 4.58919 26.8858 5.27205 26.7383 6.02957C26.5908 6.78709 26.7107 7.57232 27.0776 8.25129C27.4444 8.93026 28.0355 9.46089 28.75 9.75264V12.0834H21.6699V4.66801H20.7324C19.652 3.87801 18.3555 3.33337 16.8978 3.33337ZM16.8978 5.83337C17.7775 5.83337 18.5082 6.22938 19.1699 6.696V18.3334H19.1667C19.1667 21.5694 16.5693 24.1667 13.3333 24.1667V26.6667C15.6046 26.6667 17.6637 25.7419 19.1699 24.2579V33.5515C18.4533 33.8662 17.7258 34.1667 16.901 34.1667C14.5773 34.1667 12.6145 32.8375 11.6895 30.9506L11.4583 30.4786L10.9603 30.3158C7.96998 29.3276 5.83659 26.6369 5.83659 23.4278C5.83659 21.5161 6.60151 19.7996 7.85482 18.4831L8.43425 17.8744L8.08594 17.1062C7.76978 16.4079 7.59441 15.6588 7.59441 14.8633C7.59441 12.7613 8.78989 10.9475 10.5632 9.99027C10.5632 9.99396 10.5632 9.99635 10.5632 10C10.5632 13.1732 13.2617 15.1693 13.2617 15.1693L14.8307 13.2227C14.8307 13.2227 13.0632 11.6202 13.0632 10C13.0632 9.21461 13.1473 8.67909 13.2227 8.35942C13.298 8.03974 13.3203 8.01762 13.3203 8.01762L13.3106 8.01436C13.958 6.73201 15.296 5.83337 16.8978 5.83337Z"
      fill="currentColor" />
  </g>
  <defs>
    <clipPath id="clip0_4002_400">
      <rect width="40" height="40" fill="white" />
    </clipPath>
  </defs>
</svg>
