<svg width="40" height="40" viewBox="0 0 40 40" fill="none" xmlns="http://www.w3.org/2000/svg">
  <path
    d="M16.6504 1.66016V2.91016V10.0065H19.5833V14.9935H16.6504V15.3092L13.3496 13.4049V8.34961H5.00649V9.59961V16.696H13.3496V16.2891L16.6504 18.1966V20.1367L13.3268 22.0573V21.6829H4.9837V22.9329V30.0293H13.3268V24.9414L16.6504 23.0241V23.3398H19.5833V28.3268H16.6504V29.5768V36.6732H24.9935V28.3268H22.0833V23.3398H24.9935V23.0176L28.2943 24.9186V30.0293H36.6406V21.6829H28.2943V22.0345L24.9935 20.1335V18.2194L28.317 16.2923V16.696H36.6601V8.34961H28.317V9.59961V13.4049L24.9935 15.3288V14.9935H22.0833V10.0065H24.9935V1.66016H16.6504ZM19.1504 4.16016H22.4935V7.50651H19.1504V4.16016ZM7.50649 10.8496H10.8496V14.196H7.50649V10.8496ZM30.817 10.8496H34.1601V14.196H30.817V10.8496ZM19.1504 17.4935H22.4935V20.8398H19.1504V17.4935ZM7.4837 24.1829H10.8268V27.5293H7.4837V24.1829ZM30.7943 24.1829H34.1406V27.5293H30.7943V24.1829ZM19.1504 30.8268H22.4935V34.1732H19.1504V30.8268Z"
    fill="currentColor" />
</svg>
