<svg width="40" height="40" viewBox="0 0 40 40" fill="none" xmlns="http://www.w3.org/2000/svg">
  <path
    d="M20 5C16.1007 5 12.5725 5.46759 9.91533 6.27279C8.58676 6.67538 7.47258 7.15589 6.60153 7.77995C5.84289 8.32347 5.22072 9.07362 5.06507 10.0033C5.02029 10.1364 4.99828 10.2762 4.99997 10.4167V17.0833V23.75V30.4167C4.99997 34.1333 12.7833 35.8333 20 35.8333C20.4666 35.8333 20.933 35.8341 21.3997 35.8008C21.1164 35.0174 20.9325 34.1837 20.8659 33.3171C20.5825 33.3337 20.3 33.3333 20 33.3333C11.8833 33.3333 7.49997 31.2667 7.49997 30.4167V26.9336C10.3833 28.4503 15.3 29.1667 20 29.1667C20.4666 29.1667 20.9493 29.1674 21.416 29.1341C21.7493 28.2008 22.1994 27.3491 22.7994 26.5658C21.8828 26.6324 20.95 26.6667 20 26.6667C11.8833 26.6667 7.49997 24.6 7.49997 23.75V20.2637C8.2007 20.6348 9.00315 20.9508 9.91533 21.2272C12.5725 22.0323 16.101 22.5 20 22.5C23.899 22.5 27.4274 22.0323 30.0846 21.2272C30.9968 20.9508 31.7992 20.6348 32.5 20.2637V22.6497C33.3833 22.7831 34.2166 23.0513 35 23.418V15.7682V10.4167C35.0013 10.2773 34.9793 10.1386 34.9349 10.0065C34.7802 9.07538 34.1579 8.32409 33.3984 7.77995C32.5274 7.15589 31.4132 6.67538 30.0846 6.27279C27.4275 5.46759 23.8993 5 20 5ZM20 7.5C23.6946 7.5 27.0393 7.96252 29.3587 8.66536C30.5184 9.01679 31.4195 9.43827 31.9401 9.8112C32.4606 10.1841 32.5 10.3987 32.5 10.4167C32.5 10.4346 32.4606 10.6492 31.9401 11.0221C31.4195 11.3951 30.5184 11.8165 29.3587 12.168C27.0393 12.8708 23.6946 13.3333 20 13.3333C16.3054 13.3333 12.9606 12.8708 10.6412 12.168C9.48156 11.8165 8.58039 11.3951 8.05986 11.0221C7.53934 10.6492 7.49997 10.4346 7.49997 10.4167C7.49997 10.3987 7.53934 10.1841 8.05986 9.8112C8.58039 9.43827 9.48156 9.01679 10.6412 8.66536C12.9606 7.96252 16.3054 7.5 20 7.5ZM7.49997 13.597C8.2007 13.9681 9.00318 14.2841 9.91533 14.5605C12.5725 15.3657 16.1007 15.8333 20 15.8333C23.8993 15.8333 27.4275 15.3657 30.0846 14.5605C30.9968 14.2841 31.7992 13.9681 32.5 13.597V17.0833C32.5 17.1015 32.4606 17.3159 31.9401 17.6888C31.4195 18.0617 30.5184 18.4832 29.3587 18.8346C27.0392 19.5374 23.6943 20 20 20C16.3056 20 12.9607 19.5374 10.6412 18.8346C9.48152 18.4832 8.58042 18.0617 8.05986 17.6888C7.53931 17.3159 7.49997 17.1015 7.49997 17.0833V13.597ZM30.8333 25C26.6916 25 23.3333 28.3583 23.3333 32.5C23.3333 36.6417 26.6916 40 30.8333 40C34.975 40 38.3333 36.6417 38.3333 32.5C38.3333 28.3583 34.975 25 30.8333 25ZM33.8313 29.1634L35.4199 30.5143L30.0325 36.862L26.2532 33.8411L27.5521 32.2103L29.7526 33.9714L33.8313 29.1634Z"
    fill="currentColor" />
</svg>
