<svg width="40" height="40" viewBox="0 0 40 40" fill="none" xmlns="http://www.w3.org/2000/svg">
  <path
    d="M7.10938 3.33008L6.46159 6.46159L3.33008 7.10938V9.55729L6.46159 10.2051L7.10938 13.3366H9.5573L10.2051 10.2051L13.3398 9.55729V7.10938L10.2051 6.46159L9.5573 3.33008H7.10938ZM24.375 3.92904L2.47722 32.9948L3.47657 33.75L8.77279 37.7376L30.6706 8.67188L24.375 3.92904ZM24.8698 7.42839L27.1712 9.16341L23.6165 13.8835L21.3151 12.1484L24.8698 7.42839ZM19.8112 14.1439L22.1126 15.8789L8.28125 34.2383L5.97982 32.5033L19.8112 14.1439ZM32.9427 15.0814L32.4512 17.4512L30.0814 17.9427V20.3906L32.4512 20.8822L32.9427 23.252H35.3906L35.8822 20.8822L38.252 20.3906V17.9427L35.8822 17.4512L35.3906 15.0814H32.9427ZM27.1094 26.6634L26.4616 29.7949L23.3268 30.4427V32.8906L26.4616 33.5384L27.1094 36.6699H29.5573L30.2051 33.5384L33.3366 32.8906V30.4427L30.2051 29.7949L29.5573 26.6634H27.1094Z"
    fill="currentColor" />
</svg>
