<svg width="40" height="40" viewBox="0 0 40 40" fill="none" xmlns="http://www.w3.org/2000/svg">
  <path
    d="M20 3.33337C10.8101 3.33337 3.33337 10.8101 3.33337 20C3.33337 29.19 10.8101 36.6667 20 36.6667C29.19 36.6667 36.6667 29.19 36.6667 20C36.6667 10.8101 29.19 3.33337 20 3.33337ZM20 5.83337C27.8389 5.83337 34.1667 12.1612 34.1667 20C34.1667 27.8389 27.8389 34.1667 20 34.1667C12.1612 34.1667 5.83337 27.8389 5.83337 20C5.83337 12.1612 12.1612 5.83337 20 5.83337ZM18.75 11.6667V12.9167V18.75H12.9167H11.6667V21.25H12.9167H18.75V27.0834V28.3334H21.25V27.0834V21.25H27.0834H28.3334V18.75H27.0834H21.25V12.9167V11.6667H18.75Z"
    fill="currentColor" />
</svg>
